@startuml
class com.avasaysayava.bagrutproject.game.gui.Joystick {
- float radius
- Paint innerPaint
- Paint outerPaint
- float X
# float outerX
# float innerX
- boolean enabled
+ <<Create>> Joystick(Level,float,float,float)
+ void draw(Canvas)
# void arrange()
+ double getDistance(MotionEvent)
+ double getDistance()
+ double getPercentage()
+ double getRadians()
+ double getAngle()
+ double getSin()
+ double getCos()
+ boolean isPressed(MotionEvent)
+ void enable(MotionEvent)
+ void disable()
+ boolean isEnabled()
+ void reset()
+ void press(MotionEvent)
+ float getRadius()
}


class com.avasaysayava.bagrutproject.game.graphic.gamemap.debugmap.StructuresMap {
+ <<Create>> StructuresMap(Game,float,float)
}

class com.avasaysayava.bagrutproject.service.BackgroundMusicService {
- MediaPlayer player
+ IBinder onBind(Intent)
+ int onStartCommand(Intent,int,int)
+ void onDestroy()
}


class com.avasaysayava.bagrutproject.activity.CreditsActivity {
- Button btn_back
- MediaPlayer click
# void onCreate(Bundle)
}


class com.avasaysayava.bagrutproject.game.gui.MovableJoystick {
+ <<Create>> MovableJoystick(Level,float,float,float)
# void arrange()
+ void enable(MotionEvent)
}

abstract class com.avasaysayava.bagrutproject.game.property.Property {
# Game game
# GameMap map
# int x
# Tile parent
+ <<Create>> Property(Game,GameMap,Tile,int,int)
+ {abstract}void update(Entity)
+ {abstract}Tile getTile()
}


class com.avasaysayava.bagrutproject.game.graphic.gamemap.debugmap.FloorMap {
+ <<Create>> FloorMap(Game,float,float)
}

class com.avasaysayava.bagrutproject.game.graphic.tileset.StructuresTileSet {
+ <<Create>> StructuresTileSet(Context)
# Tile[] getTileArray()
}

class com.avasaysayava.bagrutproject.game.property.GlyphStoneProperty {
- int glyphs
+ int GLYPH_GOAL
- Tile tile
+ <<Create>> GlyphStoneProperty(Game,GameMap,Tile,int,int)
+ void update(Entity)
+ Tile getTile()
}


class com.avasaysayava.bagrutproject.game.graphic.tileset.PlayerTileSet {
+ <<Create>> PlayerTileSet(Context)
# Tile[] getTileArray()
}

enum com.avasaysayava.bagrutproject.game.audio.TileSound {
+  GRASS
+  PATH
+  FLOOR
+  WALL
+  ENTITY
+  GLYPH
+  STAIR
+ int[] sounds
~ <<Create>> TileSound(int)
}


class com.avasaysayava.bagrutproject.database.DatabaseHelper {
- {static} String DATABASE_NAME
- {static} int DATABASE_VERSION
- {static} String SQL_CREATE_ENTRIES
- {static} String SQL_DELETE_ENTRIES
+ <<Create>> DatabaseHelper(Context)
+ void onCreate(SQLiteDatabase)
+ void onUpgrade(SQLiteDatabase,int,int)
}


class com.avasaysayava.bagrutproject.game.LevelPreview {
- GameMap map
- Bitmap vignetteBitmap
+ <<Create>> LevelPreview(Context)
+ <<Create>> LevelPreview(Context,AttributeSet)
+ <<Create>> LevelPreview(Context,AttributeSet,int)
+ <<Create>> LevelPreview(Context,AttributeSet,int,int)
+ void surfaceCreated(SurfaceHolder)
+ void surfaceChanged(SurfaceHolder,int,int,int)
+ void surfaceDestroyed(SurfaceHolder)
- void loadMap()
+ void draw(Canvas)
+ void update()
+ void onStart()
+ void onResume()
+ void onPause()
+ void onStop()
+ void onDestroy()
+ boolean isDebug()
+ boolean isGraph()
+ void onCompleted()
+ void loadMap(GameMap)
}


class com.avasaysayava.bagrutproject.activity.StartActivity {
- RadioGroup optionsMenu
- Button btn_go
- MediaPlayer click
- UUIDDataSource uuidDataSource
# void onCreate(Bundle)
}


class com.avasaysayava.bagrutproject.game.graphic.gamemap.debugmap.WallsMap {
+ <<Create>> WallsMap(Game,float,float)
}

abstract class com.avasaysayava.bagrutproject.game.graphic.gamemap.levelmap.LevelMap {
# <<Create>> LevelMap(Game,List<Tile>[][],int,float,float)
}

class com.avasaysayava.bagrutproject.game.graphic.tileset.GlyphFloorTileSet {
+ <<Create>> GlyphFloorTileSet(Context)
# Tile[] getTileArray()
}

class com.avasaysayava.bagrutproject.game.thread.OperationScheduler {
- int UPS
- Game game
- SurfaceHolder surfaceHolder
- SizedDeque<Long> upsDeque
- double lastUPS
- int ups
- long t_start
+ <<Create>> OperationScheduler(Game,SurfaceHolder,int)
+ double getAvgUPS()
+ double getAvgFPS()
+ double getFramedUPS()
+ double getFramedFPS()
# void periodic()
}


class com.avasaysayava.bagrutproject.game.audio.TileSoundPreloader {
- HashMap<TileSound,MediaPlayer[]> soundMap
+ <<Create>> TileSoundPreloader(Context)
+ MediaPlayer[] getSounds(TileSound)
}


class com.avasaysayava.bagrutproject.game.property.StairUpProperty {
+ <<Create>> StairUpProperty(Game,GameMap,Tile,int,int)
+ void update(Entity)
+ Tile getTile()
}

class com.avasaysayava.bagrutproject.database.DatabaseContract {
}
class com.avasaysayava.bagrutproject.database.DatabaseContract$UserEntry {
+ {static} String TABLE_NAME
+ {static} String COLUMN_UUID
+ {static} String COLUMN_LEVEL1
+ {static} String COLUMN_LEVEL2
+ {static} String COLUMN_LEVEL3
+ {static} String COLUMN_LEVEL4
+ {static} String COLUMN_LEVEL5
+ {static} String COLUMN_LEVEL6
+ {static} String COLUMN_LEVEL7
+ {static} String COLUMN_LEVEL8
+ {static} String COLUMN_LEVEL9
}

class com.avasaysayava.bagrutproject.game.graphic.gamemap.levelmap.Level1Map {
+ <<Create>> Level1Map(Game)
}

class com.avasaysayava.bagrutproject.game.graphic.gamemap.debugmap.GlyphFloorMap {
+ <<Create>> GlyphFloorMap(Game,float,float)
}

class com.avasaysayava.bagrutproject.game.Level {
- Player player
- GameMap map
- double[] fpsGraph
- Joystick joystick
- Bitmap vignetteBitmap
- boolean debugMode
- OperationScheduler operationScheduler
- int fpsIndex
+ <<Create>> Level(Context)
+ <<Create>> Level(Context,AttributeSet)
+ <<Create>> Level(Context,AttributeSet,int)
+ <<Create>> Level(Context,AttributeSet,int,int)
+ boolean onTouchEvent(MotionEvent)
+ void surfaceCreated(SurfaceHolder)
+ void surfaceChanged(SurfaceHolder,int,int,int)
+ void surfaceDestroyed(SurfaceHolder)
+ void draw(Canvas)
- void drawUPS(Canvas,Paint)
- void drawFPS(Canvas,Paint)
- int[] getGradientColor(double)
- void drawBounds(Canvas,Paint)
- void drawPlayerVelocity(Canvas,Paint)
+ void update()
+ boolean isDebug()
+ GameMap getMap()
+ OperationScheduler getOperationScheduler()
+ Joystick getJoystick()
+ void onStart()
+ void onResume()
+ void onPause()
+ void onStop()
+ void onDestroy()
- void createOperationScheduler()
- void createJoystick()
+ boolean isPaused()
+ void pause()
+ void resume()
+ void toggleDebug()
+ void toggleGraph()
+ boolean isGraph()
}


class com.avasaysayava.bagrutproject.game.graphic.gamemap.GameMap {
+ int TILE_SIZE
# List<Tile>[][] map
# Game game
# float x
- int glyphs
+ <<Create>> GameMap(Game,List<Tile>[][],int,float,float)
+ void move(float,float)
+ void translate(float,float)
+ void update(Entity)
+ void draw(Canvas,Entity)
- int getEvaluation(Object,Object)
- Prioritised getPrioritised(Object)
+ LineF getIntersector(Entity)
+ List<Tile> getTiles(int,int)
+ float getX()
+ float getY()
+ void setGame(Game)
+ int getColumns()
+ int getRows()
+ List<Tile>[][] getMap()
+ void clear()
+ void prepare()
+ void removeGlyphs(int)
+ void onNoGlyphs()
}


class com.avasaysayava.bagrutproject.game.graphic.gamemap.GameMap$Prioritised {
+ int z
+ int down
+ int left
+ int x
+ int y
}

class com.avasaysayava.bagrutproject.game.property.GlyphProperty {
- Tile tile
+ <<Create>> GlyphProperty(Game,GameMap,Tile,int,int)
+ void update(Entity)
+ Tile getTile()
}


class com.avasaysayava.bagrutproject.activity.MenuActivity {
- Button[] levels
- Button currentLevel
- LevelDataSource levelDataSource
- UUIDDataSource uuidDataSource
- RelativeLayout rl_rank_first
- TextView txt_rank_first_time
- TextView txt_rank_first_number
- LevelPreview sv_level_preview
- MediaPlayer click
- TextView txt_level_title
# void onCreate(Bundle)
+ void previewMap(Button,int,GameMap)
- void loadLeaderboards(int)
# void onResume()
# void onStart()
# void onDestroy()
# void onStop()
# void onPause()
}


class com.avasaysayava.bagrutproject.game.graphic.tileset.GroundTileSet {
+ <<Create>> GroundTileSet(Context)
# Tile[] getTileArray()
}

abstract class com.avasaysayava.bagrutproject.game.thread.PeriodicThread {
- boolean running
+ <<Create>> PeriodicThread()
+ void start()
+ void run()
+ void pause()
# {abstract}void periodic()
}


abstract class com.avasaysayava.bagrutproject.game.graphic.gamemap.debugmap.DebugMap {
+ <<Create>> DebugMap(Game,List<Tile>[][],int,float,float)
}

class com.avasaysayava.bagrutproject.game.graphic.Tile {
+ {static} Tile empty
# int z
# int down
# int scale
# TileSound type
# TileSet tileSet
# Rect bounds
# Collision collision
# Collision collisionTop
# Collision collisionDown
# Property property
# int id
+ <<Create>> Tile(Tile)
- <<Create>> Tile(Tile,int,int)
+ <<Create>> Tile(TileSet,Rect,Collision,Collision,Collision,int,int,TileSound)
+ Property getProp()
+ void setProperty(Property)
+ void draw(Canvas,float,float,Paint)
+ void draw(Canvas,float,float,double,double,Paint)
+ LineF getIntersector(Entity)
+ void move(float,float)
+ int getWidth()
+ int getHeight()
+ TileSet getTileSet()
+ Rect getBounds()
+ int getScale()
+ Collision getCollision()
+ Collision getCollisionTop()
+ Collision getCollisionDown()
+ int getDown()
+ int getLeft()
+ int getZ()
+ TileSound getType()
+ Tile withScale(int)
+ Tile withZ(int)
+ int getId()
+ void setId(int)
}


class com.avasaysayava.bagrutproject.game.entity.Player {
- float maxSpeed
- Shadow shadow
- Collision collision
- double wobble
- double Vx
- double angle
- int lastId
- boolean playSound
+ <<Create>> Player(Level,float,float,int)
+ void draw(Canvas)
+ double getSpeed()
- void updateVelocity(double,double)
+ void update()
- double getPreferredSpeed()
+ Collision getCollision()
+ int getLeft()
+ int getDown()
+ Shadow getShadow()
+ Point getPoint()
+ double getVx()
+ double getVy()
- Point getPositionOnMap(GameMap)
}


class com.avasaysayava.bagrutproject.game.graphic.tileset.WallsTileSet {
+ <<Create>> WallsTileSet(Context)
# Tile[] getTileArray()
}

class com.avasaysayava.bagrutproject.game.graphic.tileset.FloorTileSet {
+ <<Create>> FloorTileSet(Context)
# Tile[] getTileArray()
}

class com.avasaysayava.bagrutproject.Static {
+ {static} GameMap currentMap
}

abstract class com.avasaysayava.bagrutproject.game.Game {
+ int SCALE
+ Paint textPaint
+ TileSoundPreloader tileSoundPreloader
+ TileSet playerTileSet
- long startTime
# LongConsumer onCompleteListener
+ <<Create>> Game(Context,int,int,Paint)
+ <<Create>> Game(Context,AttributeSet,int,int,Paint)
+ <<Create>> Game(Context,AttributeSet,int,int,int,Paint)
+ <<Create>> Game(Context,AttributeSet,int,int,int,int,Paint)
+ {abstract}void surfaceChanged(SurfaceHolder,int,int,int)
+ {abstract}void surfaceCreated(SurfaceHolder)
+ {abstract}void surfaceDestroyed(SurfaceHolder)
+ void setOnCompleteListener(LongConsumer)
+ {abstract}void update()
+ {abstract}void onStart()
+ {abstract}void onResume()
+ {abstract}void onPause()
+ {abstract}void onStop()
+ {abstract}void onDestroy()
+ {abstract}boolean isDebug()
+ {abstract}boolean isGraph()
+ void onCompleted()
}


class com.avasaysayava.bagrutproject.game.graphic.gamemap.debugmap.GroundMap {
+ <<Create>> GroundMap(Game,float,float)
}

abstract class com.avasaysayava.bagrutproject.game.entity.Entity {
# Level level
# float x
# int z
# double mass
- int glyphs
+ <<Create>> Entity(Level,double,float,float,int)
+ void move(float,float)
+ void translate(float,float)
+ double getDistance(float,float)
+ float getX()
+ float getY()
+ void addGlyphs(int)
+ int getGlyphs(int)
+ int getGlyphCount()
+ {abstract}void draw(Canvas)
+ {abstract}void update()
+ {abstract}Collision getCollision()
+ {abstract}int getLeft()
+ {abstract}int getDown()
+ {abstract}Shadow getShadow()
+ int getZ()
+ void setZ(int)
+ {abstract}Point getPoint()
}


abstract class com.avasaysayava.bagrutproject.database.datasource.DataSource {
# DatabaseHelper databaseHelper
# Context context
# SQLiteDatabase database
+ <<Create>> DataSource(Context)
+ void openWriteable()
+ void openReadable()
+ void close()
}


class com.avasaysayava.bagrutproject.database.datasource.LevelDataSource {
- String COLUMN_NAME
+ <<Create>> LevelDataSource(Context,String)
+ String getTimeByUUID(String)
+ void setColumn(String)
+ int getRankByTime(String)
+ void updateTimeByUUID(String,String)
+ String getTimeByRank(int)
}


abstract class com.avasaysayava.bagrutproject.game.graphic.tileset.TileSet {
- Bitmap bitmap
- Tile[] tiles
+ <<Create>> TileSet(Context,int)
# {abstract}Tile[] getTileArray()
+ Bitmap getBitmap()
+ Tile getTile(int,int,int,int,int,int,Collision,Collision,Collision,TileSound)
+ Tile getTile(int,int,int,int,int,int,int,Collision,Collision,Collision,TileSound)
+ Tile getTile(int)
}


class com.avasaysayava.bagrutproject.game.struct.SizedDeque {
- int capacity
+ <<Create>> SizedDeque(int)
+ boolean add(E)
+ void addFirst(E)
+ void addLast(E)
+ boolean addAll(Collection<? extends E>)
+ boolean offer(E)
+ boolean offerFirst(E)
+ boolean offerLast(E)
}


class com.avasaysayava.bagrutproject.database.datasource.UUIDDataSource {
- String PREFS_NAME
- String UUID_PREF_NAME
+ <<Create>> UUIDDataSource(Context)
+ void insertUUID(String)
+ boolean UUIDExists(String)
+ void saveUUID(String)
+ String getUUID()
+ String generateUUID()
}


class com.avasaysayava.bagrutproject.game.struct.LineF {
+ <<Create>> LineF(PointF,PointF)
}

class com.avasaysayava.bagrutproject.game.property.StairDownProperty {
+ <<Create>> StairDownProperty(Game,GameMap,Tile,int,int)
+ void update(Entity)
+ Tile getTile()
}

class com.avasaysayava.bagrutproject.game.graphic.gamemap.levelmap.Level2Map {
+ <<Create>> Level2Map(Game)
}

class com.avasaysayava.bagrutproject.game.collision.Path {
- PointF[] points
- float dx
+ <<Create>> Path(PointF)
+ {static} Path polygon(PointF)
+ LineF getIntersector(Path)
+ void draw(Canvas,Paint,int)
+ void move(float,float)
+ PointF[] getPoints()
}


class com.avasaysayava.bagrutproject.activity.LevelActivity {
- Level sv_level
- Intent backgroundMusicService
- ImageButton img_btn_play
- LevelDataSource levelDataSource
- UUIDDataSource uuidDataSource
- MediaPlayer click
# void onCreate(Bundle)
- void resumeLevel()
- void pauseLevel()
- void showLeaveDialog()
# void onStart()
# void onResume()
# void onPause()
# void onStop()
# void onDestroy()
+ void onBackPressed()
+ void onCompleted(long)
- void showTimeDialog(long,long,boolean)
}


class com.avasaysayava.bagrutproject.game.collision.Collision {
+ {static} Collision empty
- Path[] paths
+ <<Create>> Collision(Path)
+ LineF getIntersector(Collision)
+ void move(float,float)
+ void draw(Canvas,Paint,int)
+ Path[] getPaths()
}


class com.avasaysayava.bagrutproject.Constants {
+ {static} int LEVEL_UPS
+ {static} int LEVEL_SCALE
+ {static} int PREVIEW_UPS
+ {static} int PREVIEW_SCALE
}

class com.avasaysayava.bagrutproject.util.Util {
+ {static} boolean within(double,double,double)
+ {static} boolean between(double,double,double)
+ {static} int withAlpha(int,int)
+ {static} boolean isCounterClockWise(PointF,PointF,PointF)
+ {static} boolean doesIntersect(PointF,PointF,PointF,PointF)
+ {static} Bitmap generateVignette(int,int)
+ {static} T randomElement(T[])
+ {static} String timeToString(long)
+ {static} void updateUUID(UUIDDataSource)
+ {static} String getLevel(GameMap)
+ {static} long stringToTime(String)
}

class com.avasaysayava.bagrutproject.activity.HowToPlayActivity {
- Button btn_back
- MediaPlayer click
# void onCreate(Bundle)
}


class com.avasaysayava.bagrutproject.game.entity.Shadow {
- Tile tile
- Entity entity
+ <<Create>> Shadow(Level,Entity,Tile)
+ void draw(Canvas)
+ void update()
+ Collision getCollision()
+ int getLeft()
+ int getDown()
+ Shadow getShadow()
+ int getZ()
+ void setZ(int)
+ Point getPoint()
}




com.avasaysayava.bagrutproject.game.graphic.gamemap.debugmap.DebugMap <|-- com.avasaysayava.bagrutproject.game.graphic.gamemap.debugmap.StructuresMap
android.app.Service <|-- com.avasaysayava.bagrutproject.service.BackgroundMusicService
android.app.Activity <|-- com.avasaysayava.bagrutproject.activity.CreditsActivity
com.avasaysayava.bagrutproject.game.gui.Joystick <|-- com.avasaysayava.bagrutproject.game.gui.MovableJoystick
com.avasaysayava.bagrutproject.game.graphic.gamemap.debugmap.DebugMap <|-- com.avasaysayava.bagrutproject.game.graphic.gamemap.debugmap.FloorMap
com.avasaysayava.bagrutproject.game.graphic.tileset.TileSet <|-- com.avasaysayava.bagrutproject.game.graphic.tileset.StructuresTileSet
com.avasaysayava.bagrutproject.game.property.Property <|-- com.avasaysayava.bagrutproject.game.property.GlyphStoneProperty
com.avasaysayava.bagrutproject.game.graphic.tileset.TileSet <|-- com.avasaysayava.bagrutproject.game.graphic.tileset.PlayerTileSet
android.database.sqlite.SQLiteOpenHelper <|-- com.avasaysayava.bagrutproject.database.DatabaseHelper
com.avasaysayava.bagrutproject.game.Game <|-- com.avasaysayava.bagrutproject.game.LevelPreview
android.app.Activity <|-- com.avasaysayava.bagrutproject.activity.StartActivity
com.avasaysayava.bagrutproject.game.graphic.gamemap.debugmap.DebugMap <|-- com.avasaysayava.bagrutproject.game.graphic.gamemap.debugmap.WallsMap
com.avasaysayava.bagrutproject.game.graphic.gamemap.GameMap <|-- com.avasaysayava.bagrutproject.game.graphic.gamemap.levelmap.LevelMap
com.avasaysayava.bagrutproject.game.graphic.tileset.TileSet <|-- com.avasaysayava.bagrutproject.game.graphic.tileset.GlyphFloorTileSet
com.avasaysayava.bagrutproject.game.thread.PeriodicThread <|-- com.avasaysayava.bagrutproject.game.thread.OperationScheduler
com.avasaysayava.bagrutproject.game.property.Property <|-- com.avasaysayava.bagrutproject.game.property.StairUpProperty
com.avasaysayava.bagrutproject.database.DatabaseContract +.. com.avasaysayava.bagrutproject.database.DatabaseContract$UserEntry
android.provider.BaseColumns <|.. com.avasaysayava.bagrutproject.database.DatabaseContract$UserEntry
com.avasaysayava.bagrutproject.game.graphic.gamemap.levelmap.LevelMap <|-- com.avasaysayava.bagrutproject.game.graphic.gamemap.levelmap.Level1Map
com.avasaysayava.bagrutproject.game.graphic.gamemap.debugmap.DebugMap <|-- com.avasaysayava.bagrutproject.game.graphic.gamemap.debugmap.GlyphFloorMap
com.avasaysayava.bagrutproject.game.Game <|-- com.avasaysayava.bagrutproject.game.Level
com.avasaysayava.bagrutproject.game.graphic.gamemap.GameMap +.. com.avasaysayava.bagrutproject.game.graphic.gamemap.GameMap$Prioritised
com.avasaysayava.bagrutproject.game.property.Property <|-- com.avasaysayava.bagrutproject.game.property.GlyphProperty
android.app.Activity <|-- com.avasaysayava.bagrutproject.activity.MenuActivity
com.avasaysayava.bagrutproject.game.graphic.tileset.TileSet <|-- com.avasaysayava.bagrutproject.game.graphic.tileset.GroundTileSet
java.lang.Thread <|-- com.avasaysayava.bagrutproject.game.thread.PeriodicThread
com.avasaysayava.bagrutproject.game.graphic.gamemap.GameMap <|-- com.avasaysayava.bagrutproject.game.graphic.gamemap.debugmap.DebugMap
com.avasaysayava.bagrutproject.game.entity.Entity <|-- com.avasaysayava.bagrutproject.game.entity.Player
com.avasaysayava.bagrutproject.game.graphic.tileset.TileSet <|-- com.avasaysayava.bagrutproject.game.graphic.tileset.WallsTileSet
com.avasaysayava.bagrutproject.game.graphic.tileset.TileSet <|-- com.avasaysayava.bagrutproject.game.graphic.tileset.FloorTileSet
android.view.SurfaceHolder.Callback <|.. com.avasaysayava.bagrutproject.game.Game
android.view.SurfaceView <|-- com.avasaysayava.bagrutproject.game.Game
com.avasaysayava.bagrutproject.game.graphic.gamemap.debugmap.DebugMap <|-- com.avasaysayava.bagrutproject.game.graphic.gamemap.debugmap.GroundMap
com.avasaysayava.bagrutproject.database.datasource.DataSource <|-- com.avasaysayava.bagrutproject.database.datasource.LevelDataSource
java.util.ArrayDeque <|-- com.avasaysayava.bagrutproject.game.struct.SizedDeque
com.avasaysayava.bagrutproject.database.datasource.DataSource <|-- com.avasaysayava.bagrutproject.database.datasource.UUIDDataSource
android.util.Pair <|-- com.avasaysayava.bagrutproject.game.struct.LineF
com.avasaysayava.bagrutproject.game.property.Property <|-- com.avasaysayava.bagrutproject.game.property.StairDownProperty
com.avasaysayava.bagrutproject.game.graphic.gamemap.levelmap.LevelMap <|-- com.avasaysayava.bagrutproject.game.graphic.gamemap.levelmap.Level2Map
android.app.Activity <|-- com.avasaysayava.bagrutproject.activity.LevelActivity
android.app.Activity <|-- com.avasaysayava.bagrutproject.activity.HowToPlayActivity
com.avasaysayava.bagrutproject.game.entity.Entity <|-- com.avasaysayava.bagrutproject.game.entity.Shadow
@enduml